<svg xmlns="http://www.w3.org/2000/svg" viewBox="0 0 1920 1080" width="1920" height="1080">
  <defs>
    <linearGradient id="sky" x1="0%" y1="0%" x2="0%" y2="100%">
      <stop offset="0%" style="stop-color:#0d1642"/>
      <stop offset="60%" style="stop-color:#1a237e"/>
      <stop offset="100%" style="stop-color:#283593"/>
    </linearGradient>
    <radialGradient id="glow" cx="50%" cy="40%" r="60%">
      <stop offset="0%" style="stop-color:rgba(255,111,0,0.15)"/>
      <stop offset="100%" style="stop-color:transparent"/>
    </radialGradient>
  </defs>
  <rect width="1920" height="1080" fill="url(#sky)"/>
  <rect width="1920" height="1080" fill="url(#glow)"/>
  <!-- Stars -->
  <g fill="rgba(255,255,255,0.3)">
    <circle cx="100" cy="80" r="1.5"/><circle cx="300" cy="120" r="1"/><circle cx="500" cy="60" r="2"/>
    <circle cx="700" cy="100" r="1"/><circle cx="900" cy="40" r="1.5"/><circle cx="1100" cy="90" r="1"/>
    <circle cx="1300" cy="50" r="2"/><circle cx="1500" cy="110" r="1"/><circle cx="1700" cy="70" r="1.5"/>
    <circle cx="200" cy="150" r="1"/><circle cx="400" cy="180" r="1.5"/><circle cx="600" cy="140" r="1"/>
    <circle cx="800" cy="170" r="2"/><circle cx="1000" cy="130" r="1"/><circle cx="1200" cy="160" r="1.5"/>
    <circle cx="1400" cy="120" r="1"/><circle cx="1600" cy="150" r="2"/><circle cx="1800" cy="140" r="1"/>
  </g>
  <!-- City silhouette -->
  <g fill="rgba(26,35,126,0.8)">
    <rect x="100" y="850" width="80" height="230"/>
    <rect x="200" y="800" width="60" height="280"/>
    <rect x="280" y="870" width="90" height="210"/>
    <rect x="400" y="750" width="40" height="330"/>
    <rect x="460" y="820" width="70" height="260"/>
    <rect x="560" y="780" width="50" height="300"/>
    <rect x="640" y="860" width="80" height="220"/>
    <rect x="750" y="790" width="60" height="290"/>
    <rect x="840" y="830" width="100" height="250"/>
    <rect x="970" y="760" width="45" height="320"/>
    <rect x="1040" y="810" width="70" height="270"/>
    <rect x="1140" y="770" width="55" height="310"/>
    <rect x="1230" y="850" width="90" height="230"/>
    <rect x="1350" y="800" width="60" height="280"/>
    <rect x="1440" y="780" width="50" height="300"/>
    <rect x="1520" y="840" width="80" height="240"/>
    <rect x="1630" y="790" width="65" height="290"/>
    <rect x="1720" y="820" width="100" height="260"/>
    <rect x="1840" y="860" width="80" height="220"/>
  </g>
  <!-- Dome silhouettes -->
  <ellipse cx="500" cy="750" rx="40" ry="25" fill="rgba(26,35,126,0.9)"/>
  <ellipse cx="1100" cy="760" rx="35" ry="22" fill="rgba(26,35,126,0.9)"/>
  <ellipse cx="1600" cy="780" rx="45" ry="28" fill="rgba(26,35,126,0.9)"/>
  <!-- Minaret -->
  <rect x="395" y="700" width="10" height="80" fill="rgba(26,35,126,0.9)"/>
  <circle cx="400" cy="698" r="7" fill="rgba(26,35,126,0.9)"/>
  <rect x="965" y="710" width="10" height="70" fill="rgba(26,35,126,0.9)"/>
  <circle cx="970" cy="708" r="6" fill="rgba(26,35,126,0.9)"/>
</svg>
